<svg width="140" height="43" viewBox="0 0 140 43" fill="none" xmlns="http://www.w3.org/2000/svg">
<g clip-path="url(#clip0)">
<path fill-rule="evenodd" clip-rule="evenodd" d="M38.6744 34.7086C38.6744 36.1484 38.393 37.1085 37.7905 37.7086C36.706 38.7482 35.5415 38.8686 33.9754 38.8686C31.4052 38.8686 30.2406 37.8283 30.2406 35.9885C30.2406 34.1487 31.4857 33.0689 33.8953 33.0689H38.6744V34.7086ZM42.7699 42.0285V28.4687C42.7699 23.8692 39.9591 21.5092 34.3762 21.5092C31.003 21.5092 28.9953 22.189 27.0677 24.4288L29.758 26.9491C30.8832 25.5092 31.967 24.9896 34.2153 24.9896C37.3886 24.9896 38.6734 26.2293 38.6734 28.7892V30.2291H33.2917C28.6338 30.2291 26.2642 32.669 26.2642 36.0686C26.2642 37.7887 26.8267 39.3483 27.8701 40.4291C29.1151 41.6685 30.8017 42.2686 33.3318 42.2686C35.8612 42.2686 37.2671 41.6685 38.7535 40.1881V42.0285H42.7699Z" fill="white"/>
<path fill-rule="evenodd" clip-rule="evenodd" d="M65.5733 42.0286V29.0688C65.5733 26.7892 65.0913 24.8696 63.5255 23.3497C62.3202 22.1894 60.5939 21.5095 58.5057 21.5095C56.4579 21.5095 54.4903 22.2692 53.0847 23.7898V21.7506H49.0683V42.0292H53.1641V29.6696C53.1641 26.5505 55.0924 25.1499 57.3808 25.1499C59.6703 25.1499 61.4774 26.5096 61.4774 29.6696V42.0292H65.5733V42.0286Z" fill="white"/>
<path fill-rule="evenodd" clip-rule="evenodd" d="M86.6134 39.3885L83.8032 36.7089C82.5168 38.1082 81.5135 38.6282 79.9073 38.6282C78.3408 38.6282 77.0157 37.9882 76.1325 36.8283C75.2486 35.7082 74.9272 34.2285 74.9272 31.8691C74.9272 29.509 75.2486 28.0691 76.1325 26.9491C77.0157 25.7892 78.3408 25.1492 79.9073 25.1492C81.5131 25.1492 82.5168 25.6692 83.8032 27.0698L86.6134 24.3493C84.6851 22.3101 82.7174 21.5092 79.9073 21.5092C75.3287 21.5092 70.831 24.2699 70.831 31.8694C70.831 39.469 75.3287 42.2686 79.9073 42.2686C82.7174 42.2682 84.6851 41.4284 86.6134 39.3885Z" fill="white"/>
<path fill-rule="evenodd" clip-rule="evenodd" d="M103.516 30.2287H94.3601C94.4001 28.9887 94.4806 28.389 94.8821 27.4691C95.524 25.9494 97.0096 24.9092 98.9379 24.9092C100.865 24.9092 102.311 25.9494 102.953 27.4691C103.356 28.389 103.476 28.989 103.516 30.2287ZM107.572 33.0689V31.269C107.572 25.5092 104.399 21.5092 98.9379 21.5092C93.7175 21.5092 90.3036 25.3091 90.3036 31.8691C90.3036 39.5886 94.3601 42.2682 99.46 42.2682C103.033 42.2682 105.001 41.1888 107.09 39.1082L104.479 36.6684C103.033 38.1082 101.829 38.7482 99.5401 38.7482C96.2065 38.7482 94.3597 36.5487 94.3597 33.0692H107.572V33.0689Z" fill="white"/>
<path fill-rule="evenodd" clip-rule="evenodd" d="M127.28 23.4298C125.875 22.0291 124.389 21.5095 122.422 21.5095C120.132 21.5095 118.045 22.5092 117.001 23.9494V21.7496H112.985V42.0285H117.081V29.7088C117.081 26.9085 118.928 25.1489 121.137 25.1489C122.542 25.1489 123.265 25.5894 124.189 26.5089L127.28 23.4298Z" fill="white"/>
<path fill-rule="evenodd" clip-rule="evenodd" d="M140 42.0285V38.5477H138.314C136.788 38.5477 136.065 37.6687 136.065 36.1883V25.2289H140V22.1092H136.065V15.9502H131.97V22.1092H129.64V25.2289H131.97V36.3884C131.97 39.3084 133.736 42.0282 137.551 42.0282H140V42.0285Z" fill="white"/>
<path fill-rule="evenodd" clip-rule="evenodd" d="M20.3828 18.7754C20.3828 20.5647 18.9245 22.0165 17.1267 22.0165H3.25547C1.4576 22.0165 0 20.5647 0 18.7754V7.24429C0 5.45496 1.4576 4.00317 3.25547 4.00317H17.1267C18.9245 4.00317 20.3828 5.45496 20.3828 7.24429V18.7754Z" fill="white"/>
<path fill-rule="evenodd" clip-rule="evenodd" d="M25.2167 10.7871C25.2167 12.0916 24.1525 13.1527 22.8407 13.1527H12.7121C11.3989 13.1527 10.3347 12.092 10.3347 10.7871V2.36487C10.3347 1.06037 11.3989 0 12.7121 0H22.8407C24.1525 0 25.2167 1.06003 25.2167 2.36487V10.7871Z" fill="white"/>
</g>
<defs>
<clipPath id="clip0">
<rect width="140" height="42.2686" fill="white"/>
</clipPath>
</defs>
</svg>
